# xmcd CD database file
#
# Track frame offsets:
#	150
#	13463
#	28339
#	38887
#	52065
#	64074
#	76327
#	88374
#	100514
#	114606
#	126216
#	139805
#	154696
#	167846
#	182670
#	195722
#	209670
#	223113
#
# Disc length: 3157 seconds
#
# Revision: 0
# Processed by: cddbd v1.4PL0 Copyright (c) Steve Scherf et al.
# Submitted via: CDex 1.50beta9
#
DISCID=110c5312
DTITLE=Washboard Sam - The Blues cd2
DYEAR=1935
DGENRE=Blues
TTITLE0=Diggin' My Potatoes 
TTITLE1=I Love My Baby 
TTITLE2=Beauty Spot 
TTITLE3=Beale Street Sheik 
TTITLE4=Morning Dove Blues 
TTITLE5=Just Got To Hold You 
TTITLE6=Ain't You Comin' Home Tonight? 
TTITLE7=Come On Back 
TTITLE8=Every Tub Stands On Its Own Bottom 
TTITLE9=Down At The Bad Man's Hall 
TTITLE10=Traveling Man 
TTITLE11=Broadcast Blues 
TTITLE12=Do That Shake Dance 
TTITLE13=How Can You Love Me? 
TTITLE14=Don't Have To Sing The Blues 
TTITLE15=I Just Couldn't Help It 
TTITLE16=Love Me Or Let Me Be 
TTITLE17=Dollar Is Your Best Friend 
EXTD=YEAR: 1935
EXTT0=
EXTT1=
EXTT2=
EXTT3=
EXTT4=
EXTT5=
EXTT6=
EXTT7=
EXTT8=
EXTT9=
EXTT10=
EXTT11=
EXTT12=
EXTT13=
EXTT14=
EXTT15=
EXTT16=
EXTT17=
PLAYORDER=
